<svg xmlns="http://www.w3.org/2000/svg" width="28" height="28" viewBox="0 0 28 28" fill="none">
  <g clip-path="url(#clip0_85_1540)">
    <path d="M14 28C21.732 28 28 21.732 28 14C28 6.26801 21.732 0 14 0C6.26801 0 0 6.26801 0 14C0 21.732 6.26801 28 14 28Z" fill="#F0F0F0"/>
    <path d="M7.91309 18.8682L9.13048 27.128C10.6471 27.6907 12.2875 27.9986 14 27.9986C20.0195 27.9986 25.1511 24.1994 27.1292 18.8682H7.91309Z" fill="black"/>
    <path d="M7.91309 9.13144L9.13048 0.871656C10.6471 0.308867 12.2875 0.000976562 14 0.000976562C20.0195 0.000976562 25.1511 3.80023 27.1292 9.13144H7.91309Z" fill="#6DA544"/>
    <path d="M0.000976562 14.0003C0.000976562 20.0198 3.80028 25.1514 9.13144 27.1295V0.871094C3.80028 2.8492 0.000976562 7.9808 0.000976562 14.0003Z" fill="#A2001D"/>
  </g>
  <defs>
    <clipPath id="clip0_85_1540">
      <rect width="28" height="28" fill="white"/>
    </clipPath>
  </defs>
</svg>