<svg xmlns="http://www.w3.org/2000/svg" width="28" height="28" viewBox="0 0 28 28" fill="none">
  <g clip-path="url(#clip0_85_1532)">
    <path d="M14 28C21.732 28 28 21.732 28 14C28 6.26801 21.732 0 14 0C6.26801 0 0 6.26801 0 14C0 21.732 6.26801 28 14 28Z" fill="#F0F0F0"/>
    <path d="M18.8699 13.9994C18.8699 15.2168 16.6898 18.2603 14.0004 18.2603C11.311 18.2603 9.13086 15.2168 9.13086 13.9994C9.13086 11.31 11.311 9.12988 14.0004 9.12988C16.6898 9.12988 18.8699 11.31 18.8699 13.9994Z" fill="#D80027"/>
    <path d="M18.8699 13.999C18.8699 16.6884 16.6898 18.8686 14.0004 18.8686C11.311 18.8686 9.13086 16.6884 9.13086 13.999" fill="#0052B4"/>
    <path d="M20.4563 17.0135L19.165 18.3047L20.0259 19.1655L21.3171 17.8743L20.4563 17.0135Z" fill="black"/>
    <path d="M18.3029 19.1648L17.0117 20.4561L17.8725 21.3169L19.1638 20.0257L18.3029 19.1648Z" fill="black"/>
    <path d="M23.0383 19.5935L21.7471 20.8848L22.6079 21.7456L23.8991 20.4544L23.0383 19.5935Z" fill="black"/>
    <path d="M20.8869 21.7478L19.5957 23.0391L20.4565 23.8999L21.7477 22.6087L20.8869 21.7478Z" fill="black"/>
    <path d="M21.7473 18.3045L20.4561 19.5957L21.3169 20.4565L22.6081 19.1653L21.7473 18.3045Z" fill="black"/>
    <path d="M19.5949 20.4559L18.3037 21.7471L19.1645 22.6079L20.4557 21.3167L19.5949 20.4559Z" fill="black"/>
    <path d="M18.3038 6.25109L21.7471 9.69434L22.6079 8.83351L19.1646 5.39027L18.3038 6.25109Z" fill="black"/>
    <path d="M17.0135 7.54375L18.3047 8.83496L19.1655 7.97418L17.8743 6.68296L17.0135 7.54375Z" fill="black"/>
    <path d="M19.1649 9.69512L20.4561 10.9863L21.3168 10.1255L20.0256 8.83433L19.1649 9.69512Z" fill="black"/>
    <path d="M19.5945 4.96074L20.8857 6.25195L21.7466 5.39113L20.4554 4.09991L19.5945 4.96074Z" fill="black"/>
    <path d="M21.7479 7.11406L23.0391 8.40527L23.8999 7.54445L22.6087 6.25324L21.7479 7.11406Z" fill="black"/>
    <path d="M8.40419 23.0389L4.96094 19.5957L4.10011 20.4565L7.54337 23.8998L8.40419 23.0389Z" fill="black"/>
    <path d="M9.69551 21.7463L8.4043 20.4551L7.54351 21.3159L8.83473 22.6071L9.69551 21.7463Z" fill="black"/>
    <path d="M7.54317 19.5949L6.25195 18.3037L5.39113 19.1645L6.68235 20.4557L7.54317 19.5949Z" fill="black"/>
    <path d="M10.9872 20.4559L7.54395 17.0127L6.68312 17.8735L10.1264 21.3168L10.9872 20.4559Z" fill="black"/>
    <path d="M4.96105 8.40517L8.4043 4.96191L7.54347 4.10109L4.10022 7.54434L4.96105 8.40517Z" fill="black"/>
    <path d="M6.25206 9.69521L9.69531 6.25195L8.83449 5.39113L5.39124 8.83438L6.25206 9.69521Z" fill="black"/>
    <path d="M7.54405 10.9862L10.9873 7.54297L10.1265 6.68218L6.68327 10.1254L7.54405 10.9862Z" fill="black"/>
  </g>
  <defs>
    <clipPath id="clip0_85_1532">
      <rect width="28" height="28" fill="white"/>
    </clipPath>
  </defs>
</svg>