<svg xmlns="http://www.w3.org/2000/svg" width="50" height="50" viewBox="0 0 50 50" fill="none">
  <path d="M25 50.1348C38.531 50.1348 49.5 39.1657 49.5 25.6348C49.5 12.1038 38.531 1.13477 25 1.13477C11.469 1.13477 0.5 12.1038 0.5 25.6348C0.5 39.1657 11.469 50.1348 25 50.1348Z" fill="white"/>
  <mask id="mask0_85_1216" style="mask-type:luminance" maskUnits="userSpaceOnUse" x="6" y="6" width="38" height="39">
    <path d="M43.7835 6.85156H6.2168V44.4183H43.7835V6.85156Z" fill="white"/>
  </mask>
  <g mask="url(#mask0_85_1216)">
    <path d="M38.2497 14.605L26.7525 9.11022C25.533 8.52122 24.0952 8.60092 22.9478 9.32193L11.0842 16.7927C9.93685 17.5137 9.24219 18.7776 9.24808 20.1319L9.2918 32.8368C9.2978 34.3385 10.1591 35.707 11.5114 36.3622L23.0085 41.8571C24.228 42.4461 25.6659 42.3664 26.8132 41.6454L38.6768 34.1745C39.8242 33.4534 40.5188 32.1897 40.5129 30.8354L40.4907 24.0048L40.4717 18.1306C40.4658 16.6287 39.6044 15.2603 38.2546 14.6075L38.2497 14.605Z" fill="#FAFAFA" stroke="#383E47" stroke-width="1.44118" stroke-miterlimit="10"/>
    <g opacity="0.8">
      <path d="M22.0279 37.3909L13.8302 33.4717C12.9921 33.0655 12.4463 32.1991 12.4434 31.2654L12.4121 22.092" fill="#FAFAFA"/>
      <path d="M22.0279 37.3909L13.8302 33.4717C12.9921 33.0655 12.4463 32.1991 12.4434 31.2654L12.4121 22.092" stroke="#383E47" stroke-width="1.15294" stroke-miterlimit="10"/>
      <path d="M15.5615 21.4846L22.6126 24.8954C23.4463 25.3081 23.9876 26.1724 23.9905 27.104L24.0188 35.1827" fill="#FAFAFA"/>
      <path d="M15.5615 21.4846L22.6126 24.8954C23.4463 25.3081 23.9877 26.1724 23.9905 27.104L24.0188 35.1827" stroke="#383E47" stroke-width="1.15294" stroke-miterlimit="10"/>
      <path d="M12.4305 25.8828L12.416 21.3252C12.4157 20.9164 12.6993 20.6927 12.8221 20.6144C12.9449 20.5384 13.271 20.3774 13.6398 20.5558L15.9753 21.6845" fill="#FAFAFA"/>
      <path d="M12.4305 25.8828L12.416 21.3252C12.4157 20.9164 12.6993 20.6927 12.8221 20.6144C12.9449 20.5384 13.271 20.3774 13.6398 20.5558L15.9753 21.6845" stroke="#383E47" stroke-width="1.15294" stroke-miterlimit="10"/>
      <path d="M24.0067 32.0705L24.0237 37.0637C24.0239 37.4703 23.7583 37.6827 23.6445 37.7544C23.5305 37.826 23.2245 37.9759 22.858 37.7974L17.6953 35.3346" fill="#FAFAFA"/>
      <path d="M24.0067 32.0705L24.0237 37.0637C24.0239 37.4703 23.7583 37.6827 23.6445 37.7544C23.5305 37.826 23.2245 37.9759 22.858 37.7974L17.6953 35.3346" stroke="#383E47" stroke-width="1.15294" stroke-miterlimit="10"/>
    </g>
  </g>
</svg>