<svg xmlns="http://www.w3.org/2000/svg" width="26" height="29" viewBox="0 0 26 29" fill="none">
  <path d="M0.490298 1.2025C0.179731 1.51948 0 2.01298 0 2.65209V25.4486C0 26.0877 0.179731 26.5812 0.490298 26.8982L0.566949 26.9678L13.6689 14.1985V13.897L0.566949 1.12777L0.490298 1.2025Z" fill="white"/>
  <path d="M19.6164 18.457L15.2539 14.1985V13.897L19.6217 9.63839L19.7195 9.6938L24.892 12.5633C26.3682 13.3777 26.3682 14.7177 24.892 15.5372L19.7195 18.4016L19.6164 18.457Z" fill="white"/>
  <path d="M18.9273 19.1946L14.4618 14.8407L1.2832 27.6911C1.7735 28.1936 2.57304 28.2542 3.48228 27.7516L18.9273 19.1946Z" fill="white"/>
  <path d="M18.9273 8.90097L3.48228 0.343906C2.57304 -0.153462 1.7735 -0.0929039 1.2832 0.409619L14.4618 13.2549L18.9273 8.90097Z" fill="white"/>
</svg>