<svg xmlns="http://www.w3.org/2000/svg" width="24" height="29" viewBox="0 0 24 29" fill="none">
  <path d="M19.9056 15.1884C19.8723 11.5802 22.9358 9.82484 23.0758 9.74311C21.3409 7.27683 18.6518 6.93986 17.7068 6.91299C15.4482 6.68125 13.2574 8.23065 12.1069 8.23065C10.9334 8.23065 9.16174 6.93538 7.25225 6.97344C4.79507 7.01039 2.49634 8.39746 1.23559 10.5514C-1.36627 14.9432 0.574219 21.3972 3.067 24.9472C4.31396 26.6858 5.77105 28.627 7.67824 28.5588C9.5441 28.4838 10.2411 27.3989 12.4927 27.3989C14.7237 27.3989 15.3782 28.5588 17.3233 28.5151C19.3258 28.4838 20.5865 26.7687 21.7898 25.0144C23.2309 23.0217 23.8096 21.0591 23.8325 20.9584C23.7854 20.9427 19.9435 19.5131 19.9056 15.1884Z" fill="black"/>
  <path d="M16.2313 4.57769C17.2349 3.35406 17.9215 1.68934 17.7309 0C16.2784 0.0626927 14.4619 0.979574 13.4159 2.17633C12.4904 3.23091 11.6637 4.95944 11.8773 6.58497C13.5089 6.70364 15.1841 5.78228 16.2313 4.57769Z" fill="black"/>
</svg>