<svg width="163" height="24" viewBox="0 0 163 24" fill="none" xmlns="http://www.w3.org/2000/svg">
<g id="Asset 1 4" clip-path="url(#clip0_85_1704)">
<g id="Layer 2">
<g id="Layer 1">
<path id="Vector" d="M47.1852 5.37698C45.7781 8.1214 44.4906 10.6371 43.1515 13.2558C46.3386 13.3244 49.2982 11.5588 50.3817 9.11855C51.4464 6.71717 50.37 4.75262 47.7457 4.3158C40.6163 3.1174 35.3162 7.44216 34.9152 14.8041C34.8495 15.9247 34.8073 17.0454 34.6619 18.1569C34.0709 22.7309 32.5864 23.5314 28.358 21.5874C25.9589 23.0328 25.0068 23.0328 22.624 21.6103C19.7348 24.883 12.3826 24.8647 9.99754 21.2146C7.61248 17.5645 5.21101 14.596 0 16.2632V8.05737C1.55252 8.05737 3.04875 8.21289 4.48166 8.00019C5.4338 7.86068 6.32732 7.22718 7.20677 6.74233C7.46943 6.59825 7.64766 6.2369 7.77899 5.9373C10.0046 0.892132 14.2212 -0.251379 19.2751 0.526208C20.4735 0.711457 21.5757 1.54393 23.0438 2.2369C25.1545 1.162 26.5077 1.2146 28.5245 2.75148C30.6352 1.18258 32.38 1.162 34.2585 2.52278C39.7041 1.06137 44.8775 -1.11816 50.5013 0.693161C54.2208 1.88927 55.581 5.78178 53.7447 9.72003C51.9905 13.5005 48.5853 14.8796 44.6712 15.5336C43.78 15.6846 42.3119 15.9224 42.1806 16.4027C41.7795 17.8527 41.8476 19.4399 41.8663 20.9767C41.8663 21.345 42.3846 21.7109 42.6684 22.0814C40.356 23.2729 38.1023 22.3467 37.8443 19.9659C37.3073 14.9802 39.0685 10.3901 41.2753 6.10654C42.3002 4.10311 44.9362 4.85783 47.1969 5.37698" fill="#2C9328"/>
<path id="Vector_2" d="M101.256 16.3887C96.8304 21.1434 94.8089 20.0937 93.3009 17.0474C92.5481 17.706 91.8563 18.4447 91.0331 19.005C89.0139 20.3773 86.6875 19.5814 86.5515 17.2097C86.4154 14.8381 87.0393 12.4207 87.2152 10.0148C87.2714 9.20745 88.512 8.15085 86.8728 7.54479C87.0697 7.0485 87.187 6.49733 87.4825 6.06051C87.9984 5.29893 88.8263 4.6883 89.164 3.87183C90.5031 0.633408 92.0556 0.0822365 95.4491 1.8684C94.9097 3.05079 94.3703 4.24461 93.8591 5.36754C94.2578 5.8684 94.6002 6.30293 94.9425 6.73975C94.4993 7.06909 94.0678 7.40985 93.6128 7.72089C93.3478 7.90385 92.8671 7.97475 92.792 8.19887C91.7601 11.1606 90.7869 14.1451 90.1279 17.2623C91.0005 16.9708 91.7862 16.4746 92.416 15.8174C93.0458 15.1601 93.5002 14.3621 93.7395 13.4933C94.2226 11.9153 94.6517 10.3189 95.1935 8.76148C96.2582 5.68544 98.2633 5.0748 101.401 6.93186C99.8229 10.232 98.0288 13.5071 97.8084 17.2989C99.7478 16.2034 100.909 14.6963 101.181 12.5145C101.525 9.77006 102.731 7.43043 105.35 6.09253C108.331 4.57166 111.34 6.32123 111.359 9.50705C111.371 11.5654 110.742 12.0685 108.493 11.8924L109.52 8.88041C106.783 9.77234 104.755 14.7237 106.136 16.6563C106.509 17.1731 108.16 17.5414 108.481 17.2326C109.736 16.0639 111.073 14.7306 111.673 13.196C112.902 10.0697 113.549 6.73289 114.661 3.55851C115.751 0.450447 117.794 -0.068707 120.726 1.70373L116.035 13.9942L116.359 14.1108C117.853 12.0822 119.243 9.97131 120.89 8.06851C121.666 7.16743 122.848 6.33953 123.995 6.0628C126.105 5.55279 127.341 7.17429 126.574 9.17772C125.808 11.1811 125.05 13.1 124.337 15.0942C124.082 15.8124 124.037 16.6014 123.798 17.873C125.993 16.4665 127.008 14.9479 127.524 12.9422C127.944 11.3069 128.446 9.59167 129.375 8.20802C130.092 7.14227 131.42 6.24118 132.672 5.79979C134.227 5.25548 135.92 5.51849 137.095 6.95473C138.185 8.28578 138.157 9.76548 137.519 11.2498C136.816 12.8941 135.491 13.6534 133.657 13.5642C133.254 13.5459 132.85 13.5642 132.341 13.5642C132.032 14.9593 131.544 16.4756 133.061 17.2944C134.621 18.1383 136.023 17.1823 136.891 15.9404C137.663 14.8244 138.132 13.4933 138.601 12.2149C138.969 11.2315 139.102 10.1566 139.424 9.15714C140.453 5.95531 142.707 5.22346 145.756 7.15142L144.016 10.2046L144.159 10.3121C145.212 9.18915 146.126 7.87869 147.367 7.00734C148.242 6.39441 149.635 6.02163 150.65 6.23661C151.161 6.34639 151.588 7.98618 151.602 8.93758C151.637 11.8055 150.097 13.7403 148.113 13.5985C147.808 13.5779 147.519 13.3698 147.224 13.2646L148.042 10.5042L147.573 10.1817C146.966 10.7032 146.166 11.1194 145.789 11.7666C144.639 13.7701 143.678 15.8833 142.597 17.9164C142.24 18.6025 141.75 19.2177 141.321 19.8695C140.521 19.3573 139.656 18.9204 138.957 18.3029C138.603 17.9965 138.547 17.3607 138.502 17.2509C136.572 18.0033 134.705 19.0439 132.705 19.4281C130.36 19.8856 128.554 18.662 127.609 16.3773C125.733 17.9164 124.501 20.8232 121.577 19.419C118.763 18.0628 120.144 15.2452 119.916 12.4962C118.681 14.5362 117.67 16.2583 116.605 17.9462C116.077 18.7809 115.876 20.3109 114.443 19.7758C113.437 19.4053 112.667 18.4036 111.83 17.6283C111.664 17.4773 111.668 17.148 111.736 17.3698C109.844 18.0834 108.024 19.0714 106.082 19.4281C103.796 19.8421 102.095 18.6163 101.251 16.3933M132.459 11.8924C135.646 11.6065 136.234 10.7832 135.038 8.57395L132.459 11.8924Z" fill="#2C9328"/>
<path id="Vector_3" d="M61.4063 16.8484C60.8458 17.3675 60.0601 18.2938 59.0892 18.9616C56.8824 20.4825 54.6052 19.4945 54.4997 16.8575C54.4368 14.8207 54.6338 12.7841 55.086 10.7946C55.5973 8.48703 56.4157 6.22059 57.2225 3.99761C58.4467 0.610532 60.2196 0.0433505 63.5193 1.82951C61.4391 6.86096 59.0634 11.7803 58.4584 17.2966C60.3345 16.2949 61.289 14.8289 61.812 12.8072C62.3045 10.8976 63.1019 8.88497 64.3518 7.38011C66.3218 5.00847 68.8992 5.1091 71.2021 7.13083C73.0783 5.65113 74.544 5.57565 76.8165 6.79921L72.635 17.5619C75.529 16.4939 77.3254 13.4156 76.9385 11.2955C76.575 9.31265 77.4638 7.81922 79.1594 6.79692C81.3521 5.47274 84.164 5.38354 85.4609 6.51562C86.671 7.57451 86.4341 9.53449 85.1372 10.7763C84.0772 10.1954 83.1251 9.60996 82.1096 9.15942C81.8939 9.06336 81.27 9.36982 81.1715 9.61682C81.073 9.86382 81.2865 10.3967 81.535 10.6025C82.2574 11.1926 83.1204 11.6203 83.8333 12.2194C86.2137 14.2343 85.7986 17.5505 83.0219 18.9524C80.6228 20.1646 77.506 19.6523 75.6885 17.7426C72.1097 20.3269 70.8926 20.2835 69.2345 17.658C67.8673 18.1474 66.5 19.0759 65.2242 18.9662C63.9485 18.8564 62.8345 17.6854 61.411 16.8438M66.3851 17.4293C68.7889 16.1554 70.4329 11.4419 69.455 9.00847C67.2716 10.0628 65.8152 13.9507 66.3804 17.4339M77.907 13.2646C77.6725 14.0422 77.2222 14.71 77.3606 15.2292C77.5412 15.9153 78.0642 16.8118 78.6575 17.0176C79.3399 17.2463 80.2593 16.8278 81.0754 16.6906C80.7283 16.0045 80.5055 15.2086 80.0036 14.6551C79.5018 14.1017 78.7278 13.7815 77.907 13.2646Z" fill="#2C9328"/>
<path id="Vector_4" d="M162.99 11.1425C162.826 14.0698 161.78 16.6953 159.165 18.525C155.931 20.7891 152.503 19.4626 151.895 15.6502C151.426 12.6519 152.179 9.88231 154.226 7.54954C155.821 5.71993 158.286 5.08642 160.263 5.94863C162.521 6.92061 162.934 8.89203 162.99 11.1425ZM156.553 17.8937C157.425 17.3266 158.281 17.0773 158.506 16.565C159.341 14.652 160.046 12.6878 160.617 10.6851C160.748 10.2276 160.169 9.58728 159.913 9.03153C159.367 9.34943 158.612 9.53697 158.309 10.0035C156.862 12.2288 156.131 14.6576 156.56 17.8937" fill="#2C9328"/>
<path id="Vector_5" d="M100.205 5.36064C99.1239 5.15481 97.6417 5.50244 97.5268 3.74601C97.4259 2.26402 98.5493 1.23028 100.235 1.27145C101.575 1.29661 102.963 1.50015 102.954 3.18111C102.954 4.78203 101.896 5.52074 100.205 5.36064Z" fill="#2C9328"/>
</g>
</g>
</g>
<defs>
<clipPath id="clip0_85_1704">
<rect width="163" height="24" fill="white"/>
</clipPath>
</defs>
</svg>
