<svg xmlns="http://www.w3.org/2000/svg" width="24" height="24" viewBox="0 0 24 24" fill="none">
<path d="M2.99959 4.5001C2.86708 4.49823 2.73552 4.52271 2.61255 4.57212C2.48958 4.62153 2.37766 4.6949 2.28329 4.78794C2.18892 4.88098 2.11399 4.99186 2.06284 5.11411C2.01169 5.23637 1.98535 5.36757 1.98535 5.5001C1.98535 5.63263 2.01169 5.76383 2.06284 5.88609C2.11399 6.00834 2.18892 6.11922 2.28329 6.21226C2.37766 6.3053 2.48958 6.37867 2.61255 6.42808C2.73552 6.47749 2.86708 6.50197 2.99959 6.5001H20.9996C21.1321 6.50197 21.2637 6.47749 21.3866 6.42808C21.5096 6.37867 21.6215 6.3053 21.7159 6.21226C21.8103 6.11922 21.8852 6.00834 21.9363 5.88609C21.9875 5.76383 22.0138 5.63263 22.0138 5.5001C22.0138 5.36757 21.9875 5.23637 21.9363 5.11411C21.8852 4.99186 21.8103 4.88098 21.7159 4.78794C21.6215 4.6949 21.5096 4.62153 21.3866 4.57212C21.2637 4.52271 21.1321 4.49823 20.9996 4.5001H2.99959ZM2.99959 11.0001C2.86708 10.9982 2.73552 11.0227 2.61255 11.0721C2.48958 11.1215 2.37766 11.1949 2.28329 11.2879C2.18892 11.381 2.11399 11.4919 2.06284 11.6141C2.01169 11.7364 1.98535 11.8676 1.98535 12.0001C1.98535 12.1326 2.01169 12.2638 2.06284 12.3861C2.11399 12.5083 2.18892 12.6192 2.28329 12.7123C2.37766 12.8053 2.48958 12.8787 2.61255 12.9281C2.73552 12.9775 2.86708 13.002 2.99959 13.0001H20.9996C21.1321 13.002 21.2637 12.9775 21.3866 12.9281C21.5096 12.8787 21.6215 12.8053 21.7159 12.7123C21.8103 12.6192 21.8852 12.5083 21.9363 12.3861C21.9875 12.2638 22.0138 12.1326 22.0138 12.0001C22.0138 11.8676 21.9875 11.7364 21.9363 11.6141C21.8852 11.4919 21.8103 11.381 21.7159 11.2879C21.6215 11.1949 21.5096 11.1215 21.3866 11.0721C21.2637 11.0227 21.1321 10.9982 20.9996 11.0001H2.99959ZM2.99959 17.5001C2.86708 17.4982 2.73552 17.5227 2.61255 17.5721C2.48958 17.6215 2.37766 17.6949 2.28329 17.7879C2.18892 17.881 2.11399 17.9919 2.06284 18.1141C2.01169 18.2364 1.98535 18.3676 1.98535 18.5001C1.98535 18.6326 2.01169 18.7638 2.06284 18.8861C2.11399 19.0083 2.18892 19.1192 2.28329 19.2123C2.37766 19.3053 2.48958 19.3787 2.61255 19.4281C2.73552 19.4775 2.86708 19.502 2.99959 19.5001H20.9996C21.1321 19.502 21.2637 19.4775 21.3866 19.4281C21.5096 19.3787 21.6215 19.3053 21.7159 19.2123C21.8103 19.1192 21.8852 19.0083 21.9363 18.8861C21.9875 18.7638 22.0138 18.6326 22.0138 18.5001C22.0138 18.3676 21.9875 18.2364 21.9363 18.1141C21.8852 17.9919 21.8103 17.881 21.7159 17.7879C21.6215 17.6949 21.5096 17.6215 21.3866 17.5721C21.2637 17.5227 21.1321 17.4982 20.9996 17.5001H2.99959Z" fill="#1F1F1F"/>
</svg>