<svg width="18" height="16" viewBox="0 0 18 16" fill="none" xmlns="http://www.w3.org/2000/svg">
<g id="mail">
<path id="Subtract" fill-rule="evenodd" clip-rule="evenodd" d="M4.00033 0.5C2.15938 0.5 0.666992 1.99238 0.666992 3.83333V12.1667C0.666992 14.0076 2.15938 15.5 4.00033 15.5H14.0003C15.8413 15.5 17.3337 14.0076 17.3337 12.1667V3.83333C17.3337 1.99238 15.8413 0.5 14.0003 0.5H4.00033ZM4.34702 4.1466C4.05981 3.95513 3.67177 4.03274 3.4803 4.31994C3.28883 4.60715 3.36644 4.99519 3.65364 5.18666L6.80464 7.28733C8.13424 8.17373 9.86642 8.17373 11.196 7.28733L14.347 5.18666C14.6342 4.99519 14.7118 4.60715 14.5204 4.31994C14.3289 4.03274 13.9408 3.95513 13.6536 4.1466L10.5026 6.24727C9.59291 6.85375 8.40774 6.85375 7.49802 6.24727L4.34702 4.1466Z" fill="white"/>
</g>
</svg>
