<svg xmlns="http://www.w3.org/2000/svg" width="21" height="20" viewBox="0 0 21 20" fill="none">
  <path d="M10.5005 2.3671H8.4647C6.56453 2.36711 5.61444 2.36711 4.88866 2.7369C4.25026 3.06219 3.73122 3.58123 3.40593 4.21964C3.03613 4.94541 3.03613 5.8955 3.03613 7.79568V11.8671C3.03613 13.7673 3.03613 14.7173 3.40593 15.4431C3.73122 16.0815 4.25026 16.6006 4.88867 16.9258C5.61444 17.2956 6.56453 17.2956 8.46471 17.2956H10.5005M10.5005 2.3671H12.5362C14.4363 2.3671 15.3864 2.3671 16.1122 2.7369C16.7506 3.06219 17.2697 3.58123 17.5949 4.21964C17.9647 4.94541 17.9647 5.8955 17.9647 7.79567V11.8671C17.9647 13.7672 17.9647 14.7173 17.5949 15.4431C17.2697 16.0815 16.7506 16.6006 16.1122 16.9258C15.3864 17.2956 14.4364 17.2956 12.5362 17.2956H10.5005M10.5005 2.3671V17.2956" stroke="white" stroke-width="1.49286" stroke-linecap="round" stroke-linejoin="round"/>
  <path d="M10.5004 11.6972H3.03613" stroke="white" stroke-width="1.49286" stroke-linecap="round" stroke-linejoin="round"/>
  <path d="M17.9652 7.96475H10.501" stroke="white" stroke-width="1.49286" stroke-linecap="round" stroke-linejoin="round"/>
</svg>