<svg xmlns="http://www.w3.org/2000/svg" width="21" height="20" viewBox="0 0 21 20" fill="none">
  <mask id="mask0_85_1254" style="mask-type:luminance" maskUnits="userSpaceOnUse" x="0" y="0" width="20" height="20">
    <path d="M0.75 19.33L19.75 19.33L19.75 0.329987L0.75 0.329987L0.75 19.33Z" fill="white"/>
  </mask>
  <g mask="url(#mask0_85_1254)">
    <path d="M15.0003 9.79154V7.11601C15.0003 5.21582 15.0003 4.26573 14.6305 3.53995C14.3052 2.90154 13.7862 2.3825 13.1478 2.05721C12.422 1.68741 11.4719 1.68741 9.57169 1.68741H7.31261C5.62284 1.68741 4.77795 1.68741 4.11826 1.98164C3.35392 2.32254 2.74255 2.93392 2.40165 3.69826C2.10742 4.35794 2.10742 5.20283 2.10742 6.89261V9.1517C2.10742 11.0519 2.10742 12.002 2.47722 12.7278C2.80251 13.3662 3.32155 13.8852 3.95995 14.2105C4.68573 14.5803 5.63582 14.5803 7.53599 14.5803H10.2115C11.5108 14.5803 12.1604 14.5803 12.6848 14.4047C13.6943 14.0667 14.4866 13.2743 14.8247 12.2648C15.0003 11.7404 15.0003 11.0908 15.0003 9.79154Z" stroke="white" stroke-opacity="0.4" stroke-width="1.49286" stroke-linecap="round" stroke-linejoin="round"/>
    <path d="M17.7142 6.43729C18.1403 7.00441 18.3928 7.70939 18.3928 8.47335V13.1846C18.3928 13.8509 18.3928 14.1841 18.3538 14.4635C18.1028 16.2663 16.6857 17.6834 14.8829 17.9345C14.6035 17.9734 14.2703 17.9734 13.604 17.9734H9.34375C8.46639 17.9734 7.65768 17.6794 7.01074 17.1846" stroke="white" stroke-opacity="0.4" stroke-width="1.49286" stroke-linecap="round" stroke-linejoin="round"/>
  </g>
</svg>